{
  "accessors": [
    {
      "bufferView": 2,
      "componentType": 5126,
      "count": 377,
      "max": [
        0.79376983642578125,
        0.7922745943069458,
        90.097846984863281
      ],
      "min": [
        -0.94949221611022949,
        -0.69358319044113159,
        23.065118789672852
      ],
      "type": "VEC3"
    },
    {
      "bufferView": 2,
      "byteOffset": 4524,
      "componentType": 5126,
      "count": 377,
      "max": [
        0.99993783235549927,
        0.99996030330657959,
        0.99948525428771973
      ],
      "min": [
        -0.9999997615814209,
        -0.9999842643737793,
        -0.99965059757232666
      ],
      "type": "VEC3"
    },
    {
      "bufferView": 3,
      "componentType": 5126,
      "count": 377,
      "max": [
        0.99997597932815552,
        0.99975550174713135,
        0.99921953678131104,
        1
      ],
      "min": [
        -0.99999284744262695,
        -0.9999995231628418,
        -0.99873554706573486,
        1
      ],
      "type": "VEC4"
    },
    {
      "bufferView": 1,
      "componentType": 5126,
      "count": 377,
      "max": [
        0.13027641177177429,
        0.98267894983291626
      ],
      "min": [
        0.0039257798343896866,
        0.022679036483168602
      ],
      "type": "VEC2"
    },
    {
      "bufferView": 0,
      "componentType": 5125,
      "count": 1932,
      "max": [
        376
      ],
      "min": [
        0
      ],
      "type": "SCALAR"
    },
    {
      "bufferView": 2,
      "byteOffset": 9048,
      "componentType": 5126,
      "count": 350,
      "max": [
        0.84179431200027466,
        0.73609614372253418,
        81.091072082519531
      ],
      "min": [
        -0.71920055150985718,
        -0.74333304166793823,
        79.485221862792969
      ],
      "type": "VEC3"
    },
    {
      "bufferView": 2,
      "byteOffset": 13248,
      "componentType": 5126,
      "count": 350,
      "max": [
        0.99950587749481201,
        0.99949014186859131,
        0.9214666485786438
      ],
      "min": [
        -0.99952900409698486,
        -0.99961757659912109,
        -1
      ],
      "type": "VEC3"
    },
    {
      "bufferView": 3,
      "byteOffset": 6032,
      "componentType": 5126,
      "count": 350,
      "max": [
        0.9999920129776001,
        0.99991196393966675,
        0.99713915586471558,
        1
      ],
      "min": [
        -0.99999415874481201,
        -0.99993771314620972,
        -0.99729442596435547,
        -1
      ],
      "type": "VEC4"
    },
    {
      "bufferView": 1,
      "byteOffset": 3016,
      "componentType": 5126,
      "count": 350,
      "max": [
        0.14307387173175812,
        0.83388727903366089
      ],
      "min": [
        0.014347566291689873,
        0.019999999552965164
      ],
      "type": "VEC2"
    },
    {
      "bufferView": 0,
      "byteOffset": 7728,
      "componentType": 5125,
      "count": 1872,
      "max": [
        349
      ],
      "min": [
        0
      ],
      "type": "SCALAR"
    }
  ],
  "asset": {
    "extras": {
      "author": "BozhidarKN (https://sketchfab.com/bojidarkn)",
      "license": "CC-BY-4.0 (http://creativecommons.org/licenses/by/4.0/)",
      "source": "https://sketchfab.com/models/53220e5960e2499ca08c379cd601b62d",
      "title": "Magic Wand"
    },
    "generator": "Sketchfab-3.22.13",
    "version": "2.0"
  },
  "bufferViews": [
    {
      "buffer": 0,
      "byteLength": 15216,
      "byteOffset": 0,
      "name": "floatBufferViews",
      "target": 34963
    },
    {
      "buffer": 0,
      "byteLength": 5816,
      "byteOffset": 15216,
      "byteStride": 8,
      "name": "floatBufferViews",
      "target": 34962
    },
    {
      "buffer": 0,
      "byteLength": 17448,
      "byteOffset": 21032,
      "byteStride": 12,
      "name": "floatBufferViews",
      "target": 34962
    },
    {
      "buffer": 0,
      "byteLength": 11632,
      "byteOffset": 38480,
      "byteStride": 16,
      "name": "floatBufferViews",
      "target": 34962
    }
  ],
  "buffers": [
    {
      "byteLength": 50112,
      "uri": "scene.bin"
    }
  ],
  "images": [
    {
      "uri": "textures/wand_normal.png"
    },
    {
      "uri": "textures/wand_metallicRoughness.png"
    },
    {
      "uri": "textures/wand_baseColor.png"
    },
    {
      "uri": "textures/rope_normal.png"
    },
    {
      "uri": "textures/rope_metallicRoughness.png"
    },
    {
      "uri": "textures/rope_baseColor.png"
    }
  ],
  "materials": [
    {
      "doubleSided": true,
      "emissiveFactor": [
        0,
        0,
        0
      ],
      "name": "wand",
      "normalTexture": {
        "index": 0,
        "scale": 1,
        "texCoord": 0
      },
      "pbrMetallicRoughness": {
        "baseColorFactor": [
          1,
          1,
          1,
          1
        ],
        "baseColorTexture": {
          "index": 2,
          "texCoord": 0
        },
        "metallicFactor": 1,
        "metallicRoughnessTexture": {
          "index": 1,
          "texCoord": 0
        },
        "roughnessFactor": 1
      }
    },
    {
      "doubleSided": true,
      "emissiveFactor": [
        0,
        0,
        0
      ],
      "name": "rope",
      "normalTexture": {
        "index": 3,
        "scale": 1,
        "texCoord": 0
      },
      "pbrMetallicRoughness": {
        "baseColorFactor": [
          1,
          1,
          1,
          1
        ],
        "baseColorTexture": {
          "index": 5,
          "texCoord": 0
        },
        "metallicFactor": 1,
        "metallicRoughnessTexture": {
          "index": 4,
          "texCoord": 0
        },
        "roughnessFactor": 1
      }
    }
  ],
  "meshes": [
    {
      "name": "wand_wand_0",
      "primitives": [
        {
          "attributes": {
            "NORMAL": 1,
            "POSITION": 0,
            "TANGENT": 2,
            "TEXCOORD_0": 3
          },
          "indices": 4,
          "material": 0,
          "mode": 4
        }
      ]
    },
    {
      "name": "wand_rope_0",
      "primitives": [
        {
          "attributes": {
            "NORMAL": 6,
            "POSITION": 5,
            "TANGENT": 7,
            "TEXCOORD_0": 8
          },
          "indices": 9,
          "material": 1,
          "mode": 4
        }
      ]
    }
  ],
  "nodes": [
    {
      "children": [
        1
      ],
      "name": "RootNode (gltf orientation matrix)",
      "rotation": [
        -0.70710678118654746,
        -0,
        -0,
        0.70710678118654757
      ]
    },
    {
      "children": [
        2
      ],
      "name": "RootNode (model correction matrix)"
    },
    {
      "children": [
        3
      ],
      "matrix": [
        1,
        0,
        0,
        0,
        0,
        0,
        1,
        0,
        0,
        -1,
        0,
        0,
        0,
        0,
        0,
        1
      ],
      "name": "wand.FBX"
    },
    {
      "children": [
        4
      ],
      "name": "RootNode"
    },
    {
      "children": [
        5
      ],
      "matrix": [
        6.2482300143318682e-08,
        -1.429428458213805,
        -1.5869843863634061e-16,
        0,
        1.5869843863634061e-16,
        0,
        -1.4294284582138062,
        0,
        0.99999999999999922,
        4.3711386843447997e-08,
        0,
        0,
        0,
        0,
        0,
        1
      ],
      "name": "wand"
    },
    {
      "children": [
        6,
        7
      ],
      "matrix": [
        1,
        0,
        -0,
        0,
        0,
        1,
        0,
        0,
        0,
        0,
        1,
        0,
        0,
        0,
        -47.244094848632812,
        1
      ],
      "name": ""
    },
    {
      "mesh": 0,
      "name": "wand_wand_0"
    },
    {
      "mesh": 1,
      "name": "wand_rope_0"
    }
  ],
  "samplers": [
    {
      "magFilter": 9729,
      "minFilter": 9987,
      "wrapS": 10497,
      "wrapT": 10497
    }
  ],
  "scene": 0,
  "scenes": [
    {
      "name": "OSG_Scene",
      "nodes": [
        0
      ]
    }
  ],
  "textures": [
    {
      "sampler": 0,
      "source": 0
    },
    {
      "sampler": 0,
      "source": 1
    },
    {
      "sampler": 0,
      "source": 2
    },
    {
      "sampler": 0,
      "source": 3
    },
    {
      "sampler": 0,
      "source": 4
    },
    {
      "sampler": 0,
      "source": 5
    }
  ]
}

