{
  "accessors": [
    {
      "bufferView": 1,
      "componentType": 5126,
      "count": 225,
      "max": [
        0.67500001192092896,
        1.1080800294876099,
        1.5410200357437134
      ],
      "min": [
        -0.6174200177192688,
        -0.67067998647689819,
        -0.12092000246047974
      ],
      "type": "VEC3"
    },
    {
      "bufferView": 1,
      "byteOffset": 2700,
      "componentType": 5126,
      "count": 225,
      "max": [
        0.97173851728439331,
        0.99642378091812134,
        0.9942823052406311
      ],
      "min": [
        -0.9957311749458313,
        -0.99689972400665283,
        -0.96921271085739136
      ],
      "type": "VEC3"
    },
    {
      "bufferView": 2,
      "componentType": 5126,
      "count": 225,
      "max": [
        0.99624377489089966,
        0.99426686763763428,
        0.86639416217803955,
        1
      ],
      "min": [
        -0.96129965782165527,
        -0.99986016750335693,
        -0.70766466856002808,
        1
      ],
      "type": "VEC4"
    },
    {
      "bufferView": 0,
      "componentType": 5125,
      "count": 342,
      "max": [
        224
      ],
      "min": [
        0
      ],
      "type": "SCALAR"
    }
  ],
  "asset": {
    "extras": {
      "author": "Inuciian (https://sketchfab.com/Inuciian)",
      "license": "CC-BY-4.0 (http://creativecommons.org/licenses/by/4.0/)",
      "source": "https://sketchfab.com/models/5fcc300e817d440f826b0cb24e3c652c",
      "title": "Dead Bush"
    },
    "generator": "Sketchfab-3.18.7",
    "version": "2.0"
  },
  "bufferViews": [
    {
      "buffer": 0,
      "byteLength": 1368,
      "byteOffset": 0,
      "name": "floatBufferViews",
      "target": 34963
    },
    {
      "buffer": 0,
      "byteLength": 5400,
      "byteOffset": 1368,
      "byteStride": 12,
      "name": "floatBufferViews",
      "target": 34962
    },
    {
      "buffer": 0,
      "byteLength": 3600,
      "byteOffset": 6768,
      "byteStride": 16,
      "name": "floatBufferViews",
      "target": 34962
    }
  ],
  "buffers": [
    {
      "byteLength": 10368,
      "uri": "scene.bin"
    }
  ],
  "materials": [
    {
      "doubleSided": true,
      "emissiveFactor": [
        0,
        0,
        0
      ],
      "name": "wood_mat",
      "pbrMetallicRoughness": {
        "baseColorFactor": [
          0.1247718334,
          0.086500473300000005,
          0.076185382900000001,
          1
        ],
        "metallicFactor": 0,
        "roughnessFactor": 1
      }
    }
  ],
  "meshes": [
    {
      "name": "dead_bush_0",
      "primitives": [
        {
          "attributes": {
            "NORMAL": 1,
            "POSITION": 0,
            "TANGENT": 2
          },
          "indices": 3,
          "material": 0,
          "mode": 4
        }
      ]
    }
  ],
  "nodes": [
    {
      "children": [
        1
      ],
      "name": "RootNode (gltf orientation matrix)",
      "rotation": [
        -0.70710678118654746,
        -0,
        -0,
        0.70710678118654757
      ]
    },
    {
      "children": [
        2
      ],
      "name": "RootNode (model correction matrix)"
    },
    {
      "children": [
        3
      ],
      "name": "Root"
    },
    {
      "children": [
        4
      ],
      "matrix": [
        1,
        0,
        0,
        0,
        0,
        1,
        0,
        0,
        0,
        0,
        1,
        0,
        -7.1346699999999998,
        -2.6822300000000001,
        0.41776000000000002,
        1
      ],
      "name": "dead_bush"
    },
    {
      "mesh": 0,
      "name": "dead_bush_0"
    }
  ],
  "scene": 0,
  "scenes": [
    {
      "name": "OSG_Scene",
      "nodes": [
        0
      ]
    }
  ]
}

