{
  "accessors": [
    {
      "bufferView": 2,
      "componentType": 5126,
      "count": 158,
      "max": [
        0.10850699990987778,
        0.094243697822093964,
        1
      ],
      "min": [
        -0.077994398772716522,
        -0.093747101724147797,
        -0.61577099561691284
      ],
      "type": "VEC3"
    },
    {
      "bufferView": 2,
      "byteOffset": 1896,
      "componentType": 5126,
      "count": 158,
      "max": [
        0.98857748508453369,
        0.99985849857330322,
        0.99921166896820068
      ],
      "min": [
        -0.98769164085388184,
        -0.99991410970687866,
        -0.99999701976776123
      ],
      "type": "VEC3"
    },
    {
      "bufferView": 3,
      "componentType": 5126,
      "count": 158,
      "max": [
        0.61931020021438599,
        0.96099758148193359,
        0.910797119140625,
        1
      ],
      "min": [
        -0.99912446737289429,
        -0.83693850040435791,
        -0.99759036302566528,
        1
      ],
      "type": "VEC4"
    },
    {
      "bufferView": 1,
      "componentType": 5126,
      "count": 158,
      "max": [
        0.77245497703552246,
        0.40435498952865601
      ],
      "min": [
        0.027118099853396416,
        0.0090580303221940994
      ],
      "type": "VEC2"
    },
    {
      "bufferView": 0,
      "componentType": 5125,
      "count": 780,
      "max": [
        157
      ],
      "min": [
        0
      ],
      "type": "SCALAR"
    },
    {
      "bufferView": 2,
      "byteOffset": 3792,
      "componentType": 5126,
      "count": 1326,
      "max": [
        0.13871799409389496,
        0.123539999127388,
        -0.61531800031661987
      ],
      "min": [
        -0.10785699635744095,
        -0.12325700372457504,
        -0.85407298803329468
      ],
      "type": "VEC3"
    },
    {
      "bufferView": 2,
      "byteOffset": 19704,
      "componentType": 5126,
      "count": 1326,
      "max": [
        0.99864864349365234,
        0.99934124946594238,
        0.99999761581420898
      ],
      "min": [
        -0.9947928786277771,
        -0.99777764081954956,
        -0.99999886751174927
      ],
      "type": "VEC3"
    },
    {
      "bufferView": 3,
      "byteOffset": 2528,
      "componentType": 5126,
      "count": 1326,
      "max": [
        0.99982631206512451,
        0.99923050403594971,
        0.99102115631103516,
        1
      ],
      "min": [
        -0.99998891353607178,
        -0.99985349178314209,
        -0.99122864007949829,
        -1
      ],
      "type": "VEC4"
    },
    {
      "bufferView": 1,
      "byteOffset": 1264,
      "componentType": 5126,
      "count": 1326,
      "max": [
        0.99130797386169434,
        0.98997098207473755
      ],
      "min": [
        0.0034100699704140425,
        0.0076222801581025124
      ],
      "type": "VEC2"
    },
    {
      "bufferView": 0,
      "byteOffset": 3120,
      "componentType": 5125,
      "count": 5448,
      "max": [
        1325
      ],
      "min": [
        0
      ],
      "type": "SCALAR"
    },
    {
      "bufferView": 2,
      "byteOffset": 35616,
      "componentType": 5126,
      "count": 165,
      "max": [
        0.14584000408649445,
        0.13194200396537781,
        -0.80242502689361572
      ],
      "min": [
        -0.11532799899578094,
        -0.13194200396537781,
        -1
      ],
      "type": "VEC3"
    },
    {
      "bufferView": 2,
      "byteOffset": 37596,
      "componentType": 5126,
      "count": 165,
      "max": [
        0.98749637603759766,
        0.99924498796463013,
        0.45034092664718628
      ],
      "min": [
        -0.98749637603759766,
        -0.99996978044509888,
        -0.9948582649230957
      ],
      "type": "VEC3"
    },
    {
      "bufferView": 3,
      "byteOffset": 23744,
      "componentType": 5126,
      "count": 165,
      "max": [
        0.45055988430976868,
        0.55319952964782715,
        0.99468255043029785,
        1
      ],
      "min": [
        -0.9997972846031189,
        -0.54063016176223755,
        -0.99576097726821899,
        1
      ],
      "type": "VEC4"
    },
    {
      "bufferView": 1,
      "byteOffset": 11872,
      "componentType": 5126,
      "count": 165,
      "max": [
        0.76610898971557617,
        0.78834497928619385
      ],
      "min": [
        0.49489200115203857,
        0.51288902759552002
      ],
      "type": "VEC2"
    },
    {
      "bufferView": 0,
      "byteOffset": 24912,
      "componentType": 5125,
      "count": 912,
      "max": [
        164
      ],
      "min": [
        0
      ],
      "type": "SCALAR"
    },
    {
      "bufferView": 2,
      "byteOffset": 39576,
      "componentType": 5126,
      "count": 837,
      "max": [
        0.14323799312114716,
        0.12568999826908112,
        0.45905300974845886
      ],
      "min": [
        -0.14584000408649445,
        -0.10569799691438675,
        -0.8324429988861084
      ],
      "type": "VEC3"
    },
    {
      "bufferView": 2,
      "byteOffset": 49620,
      "componentType": 5126,
      "count": 837,
      "max": [
        0.9998096227645874,
        0.99823349714279175,
        0.991466224193573
      ],
      "min": [
        -0.99924725294113159,
        -0.99576300382614136,
        -0.97900646924972534
      ],
      "type": "VEC3"
    },
    {
      "bufferView": 3,
      "byteOffset": 26384,
      "componentType": 5126,
      "count": 837,
      "max": [
        0.99892747402191162,
        0.99943941831588745,
        0.9954255223274231,
        1
      ],
      "min": [
        -0.99574977159500122,
        -0.99704718589782715,
        -0.99801933765411377,
        1
      ],
      "type": "VEC4"
    },
    {
      "bufferView": 1,
      "byteOffset": 13192,
      "componentType": 5126,
      "count": 837,
      "max": [
        0.97020602226257324,
        0.95482498407363892
      ],
      "min": [
        0.77019697427749634,
        0.22247099876403809
      ],
      "type": "VEC2"
    },
    {
      "bufferView": 0,
      "byteOffset": 28560,
      "componentType": 5125,
      "count": 4236,
      "max": [
        836
      ],
      "min": [
        0
      ],
      "type": "SCALAR"
    }
  ],
  "asset": {
    "extras": {
      "author": "Paulina (https://sketchfab.com/Byakko)",
      "license": "CC-BY-4.0 (http://creativecommons.org/licenses/by/4.0/)",
      "source": "https://sketchfab.com/models/61795e3426cb464e9ffb10c398de136b",
      "title": "Wand"
    },
    "generator": "Sketchfab-3.27.1",
    "version": "2.0"
  },
  "bufferViews": [
    {
      "buffer": 0,
      "byteLength": 45504,
      "byteOffset": 0,
      "name": "floatBufferViews",
      "target": 34963
    },
    {
      "buffer": 0,
      "byteLength": 19888,
      "byteOffset": 45504,
      "byteStride": 8,
      "name": "floatBufferViews",
      "target": 34962
    },
    {
      "buffer": 0,
      "byteLength": 59664,
      "byteOffset": 65392,
      "byteStride": 12,
      "name": "floatBufferViews",
      "target": 34962
    },
    {
      "buffer": 0,
      "byteLength": 39776,
      "byteOffset": 125056,
      "byteStride": 16,
      "name": "floatBufferViews",
      "target": 34962
    }
  ],
  "buffers": [
    {
      "byteLength": 164832,
      "uri": "scene.bin"
    }
  ],
  "images": [
    {
      "uri": "textures/lambert7_baseColor.png"
    },
    {
      "uri": "textures/lambert7_emissive.jpeg"
    },
    {
      "uri": "textures/lambert7_metallicRoughness.png"
    },
    {
      "uri": "textures/lambert7_normal.png"
    }
  ],
  "materials": [
    {
      "alphaMode": "BLEND",
      "doubleSided": true,
      "emissiveFactor": [
        1,
        1,
        1
      ],
      "emissiveTexture": {
        "index": 1,
        "texCoord": 0
      },
      "name": "lambert7",
      "normalTexture": {
        "index": 3,
        "scale": 1,
        "texCoord": 0
      },
      "occlusionTexture": {
        "index": 2,
        "strength": 1,
        "texCoord": 0
      },
      "pbrMetallicRoughness": {
        "baseColorFactor": [
          1,
          1,
          1,
          1
        ],
        "baseColorTexture": {
          "index": 0,
          "texCoord": 0
        },
        "metallicFactor": 1,
        "metallicRoughnessTexture": {
          "index": 2,
          "texCoord": 0
        },
        "roughnessFactor": 1
      }
    }
  ],
  "meshes": [
    {
      "name": "defaultMaterial",
      "primitives": [
        {
          "attributes": {
            "NORMAL": 1,
            "POSITION": 0,
            "TANGENT": 2,
            "TEXCOORD_0": 3
          },
          "indices": 4,
          "material": 0,
          "mode": 4
        }
      ]
    },
    {
      "name": "defaultMaterial",
      "primitives": [
        {
          "attributes": {
            "NORMAL": 6,
            "POSITION": 5,
            "TANGENT": 7,
            "TEXCOORD_0": 8
          },
          "indices": 9,
          "material": 0,
          "mode": 4
        }
      ]
    },
    {
      "name": "defaultMaterial",
      "primitives": [
        {
          "attributes": {
            "NORMAL": 11,
            "POSITION": 10,
            "TANGENT": 12,
            "TEXCOORD_0": 13
          },
          "indices": 14,
          "material": 0,
          "mode": 4
        }
      ]
    },
    {
      "name": "defaultMaterial",
      "primitives": [
        {
          "attributes": {
            "NORMAL": 16,
            "POSITION": 15,
            "TANGENT": 17,
            "TEXCOORD_0": 18
          },
          "indices": 19,
          "material": 0,
          "mode": 4
        }
      ]
    }
  ],
  "nodes": [
    {
      "children": [
        1
      ],
      "name": "RootNode (gltf orientation matrix)",
      "rotation": [
        -0.70710678118654746,
        -0,
        -0,
        0.70710678118654757
      ]
    },
    {
      "children": [
        2
      ],
      "name": "RootNode (model correction matrix)"
    },
    {
      "children": [
        3,
        5,
        7,
        9
      ],
      "matrix": [
        1,
        0,
        0,
        0,
        0,
        -4.3711390063094768e-08,
        0.999999999999999,
        0,
        0,
        -0.999999999999999,
        -4.3711390063094768e-08,
        0,
        0,
        0,
        0,
        1
      ],
      "name": "Collada visual scene group"
    },
    {
      "children": [
        4
      ],
      "name": "body_low"
    },
    {
      "mesh": 0,
      "name": "defaultMaterial"
    },
    {
      "children": [
        6
      ],
      "name": "azur_low"
    },
    {
      "mesh": 1,
      "name": "defaultMaterial"
    },
    {
      "children": [
        8
      ],
      "name": "kula_low"
    },
    {
      "mesh": 2,
      "name": "defaultMaterial"
    },
    {
      "children": [
        10
      ],
      "name": "pnacze_low"
    },
    {
      "mesh": 3,
      "name": "defaultMaterial"
    }
  ],
  "samplers": [
    {
      "magFilter": 9729,
      "minFilter": 9987,
      "wrapS": 10497,
      "wrapT": 10497
    }
  ],
  "scene": 0,
  "scenes": [
    {
      "name": "OSG_Scene",
      "nodes": [
        0
      ]
    }
  ],
  "textures": [
    {
      "sampler": 0,
      "source": 0
    },
    {
      "sampler": 0,
      "source": 1
    },
    {
      "sampler": 0,
      "source": 2
    },
    {
      "sampler": 0,
      "source": 3
    }
  ]
}

