{
  "accessors": [
    {
      "bufferView": 1,
      "componentType": 5126,
      "count": 306,
      "max": [
        2.685189962387085,
        3.4310300350189209,
        6.5542998313903809
      ],
      "min": [
        -2.0187399387359619,
        -1.5175000429153442,
        -0.39706000685691833
      ],
      "type": "VEC3"
    },
    {
      "bufferView": 1,
      "byteOffset": 3672,
      "componentType": 5126,
      "count": 306,
      "max": [
        0.99976652860641479,
        0.9958072304725647,
        0.98500335216522217
      ],
      "min": [
        -0.99724066257476807,
        -0.99882203340530396,
        -0.99985522031784058
      ],
      "type": "VEC3"
    },
    {
      "bufferView": 2,
      "componentType": 5126,
      "count": 306,
      "max": [
        0.99939548969268799,
        0.99987304210662842,
        0.99760860204696655,
        1
      ],
      "min": [
        -0.99962890148162842,
        -0.98841196298599243,
        -0.99101501703262329,
        1
      ],
      "type": "VEC4"
    },
    {
      "bufferView": 0,
      "componentType": 5125,
      "count": 780,
      "max": [
        305
      ],
      "min": [
        0
      ],
      "type": "SCALAR"
    }
  ],
  "asset": {
    "extras": {
      "author": "Inuciian (https://sketchfab.com/Inuciian)",
      "license": "CC-BY-4.0 (http://creativecommons.org/licenses/by/4.0/)",
      "source": "https://sketchfab.com/models/ccc4088f050a4f708f3855c71d2bd9c4",
      "title": "Dead Tree"
    },
    "generator": "Sketchfab-3.18.7",
    "version": "2.0"
  },
  "bufferViews": [
    {
      "buffer": 0,
      "byteLength": 3120,
      "byteOffset": 0,
      "name": "floatBufferViews",
      "target": 34963
    },
    {
      "buffer": 0,
      "byteLength": 7344,
      "byteOffset": 3120,
      "byteStride": 12,
      "name": "floatBufferViews",
      "target": 34962
    },
    {
      "buffer": 0,
      "byteLength": 4896,
      "byteOffset": 10464,
      "byteStride": 16,
      "name": "floatBufferViews",
      "target": 34962
    }
  ],
  "buffers": [
    {
      "byteLength": 15360,
      "uri": "scene.bin"
    }
  ],
  "materials": [
    {
      "doubleSided": true,
      "emissiveFactor": [
        0,
        0,
        0
      ],
      "name": "wood_3_mat",
      "pbrMetallicRoughness": {
        "baseColorFactor": [
          0.14239826799999999,
          0.072311669600000003,
          0.057635486100000001,
          1
        ],
        "metallicFactor": 0,
        "roughnessFactor": 1
      }
    }
  ],
  "meshes": [
    {
      "name": "dead_tree.001_0",
      "primitives": [
        {
          "attributes": {
            "NORMAL": 1,
            "POSITION": 0,
            "TANGENT": 2
          },
          "indices": 3,
          "material": 0,
          "mode": 4
        }
      ]
    }
  ],
  "nodes": [
    {
      "children": [
        1
      ],
      "name": "RootNode (gltf orientation matrix)",
      "rotation": [
        -0.70710678118654746,
        -0,
        -0,
        0.70710678118654757
      ]
    },
    {
      "children": [
        2
      ],
      "name": "RootNode (model correction matrix)"
    },
    {
      "children": [
        3
      ],
      "name": "Root"
    },
    {
      "children": [
        4
      ],
      "matrix": [
        1,
        0,
        0,
        0,
        0,
        1,
        0,
        0,
        0,
        0,
        1,
        0,
        1.5890599999999999,
        15.541569999999998,
        -0.88121000000000005,
        1
      ],
      "name": "dead_tree.001"
    },
    {
      "mesh": 0,
      "name": "dead_tree.001_0"
    }
  ],
  "scene": 0,
  "scenes": [
    {
      "name": "OSG_Scene",
      "nodes": [
        0
      ]
    }
  ]
}

